<?xml version="1.0" encoding="utf-8"?>
<!-- Generator: Adobe Illustrator 19.0.0, SVG Export Plug-In . SVG Version: 6.00 Build 0)  -->
<svg version="1.1" id="레이어_1" xmlns="http://www.w3.org/2000/svg" xmlns:xlink="http://www.w3.org/1999/xlink" x="0px"
	 y="0px" viewBox="0 0 1633.3 453.5" style="enable-background:new 0 0 1633.3 453.5;" xml:space="preserve">
<style type="text/css">
	.st0{fill:#FFFFFF;}
	.st1{fill:#24549c;}
	.st2{clip-path:url(#SVGID_2_);fill:#24549c;}
</style>
<rect x="79.2" y="85" class="st0" width="737" height="283.5"/>
<rect x="718.7" y="300.7" class="st1" width="58.4" height="67.8"/>
<g>
	<defs>
		<rect id="SVGID_1_" width="1633.3" height="453.5"/>
	</defs>
	<clipPath id="SVGID_2_">
		<use xlink:href="#SVGID_1_"  style="overflow:visible;"/>
	</clipPath>
	<path class="st2" d="M348.1,354.3l16.9-31.7c16.4,11.1,31.8,18.3,45.3,18.3c13.4,0,26-4.2,26.3-18.6c0.3-13-11.6-19.1-31-24.4
		c-19.4-5.3-50.7-19.8-50.7-55.6c0-38.6,36.1-51.3,61.6-51.3c25.5,0,45.2,9.2,57.1,16.1L459,237c-13.1-8-25.8-11.5-37-12
		c-12.2-0.6-24.1,2.9-25.8,13c-1.8,10.3,3.8,20.8,35.6,29.6c34.9,9.7,46.5,29,46.5,51.2c0,16.7-6.3,38.6-29.4,49.8h102.6
		c-32.8-14-54.9-46.6-54.9-84.6c0-50.8,39.4-91.9,91.3-91.9c30.5,0,54,12.6,70,33.7l-28.6,25.8c-8.4-12-23.7-21.1-40.8-21.1
		c-28.8,0-51,24-51,53.5c0,29.6,22.2,53.5,51,53.5c17.2,0,32.4-9.1,40.8-21.1l28.6,25.8c-8.8,11.6-19.8,20.6-33,26.3h53.8V195.7
		h40.1v67h58.4v-67h39.1V85h-737v283.5H374C362.6,364.1,353.6,358.5,348.1,354.3"/>
	<polygon class="st2" points="1550.3,168.6 1564.4,168.6 1564.4,97.8 1489.6,97.8 1489.6,109.9 1550.3,109.9 	"/>
	<polygon class="st2" points="1539.9,178.8 1539.9,134.8 1525.8,134.8 1525.8,178.8 1511.2,178.8 1511.2,134.8 1497.1,134.8 
		1497.1,178.8 1474.9,178.8 1474.9,190.9 1579.3,190.9 1579.3,178.8 	"/>
	<polygon class="st2" points="1381.9,180.4 1438.9,180.4 1438.9,208.7 1453,208.7 1453,168.4 1381.9,168.4 	"/>
	<polygon class="st2" points="1453,117.2 1453,93.3 1438.9,93.3 1438.9,160.3 1453,160.3 1453,129.3 1468,129.3 1468,117.2 	"/>
	<path class="st2" d="M1420.9,129.9c0-5.8-1.8-11.2-5.3-15.6h9.1v-12.1h-26.1V90.7h-14.1v11.5h-26.1v12.1h9.5
		c-3.5,4.5-5.3,9.8-5.3,15.6c0,15.4,12.5,27.1,29.1,27.1S1420.9,145.3,1420.9,129.9 M1406.9,129.9c0,8.4-6.5,14.8-15.1,14.8
		c-8.6,0-15.1-6.4-15.1-14.8c0-8.4,6.5-14.8,15.1-14.8C1400.4,115.1,1406.9,121.5,1406.9,129.9"/>
	<polygon class="st2" points="1227.8,117.6 1227.8,105.5 1212.8,105.5 1212.8,93.3 1198.7,93.3 1198.7,158.7 1212.8,158.7 
		1212.8,142.5 1227.8,142.5 1227.8,130.4 1212.8,130.4 1212.8,117.6 	"/>
	<path class="st2" d="M1180.8,129.9c0-5.8-1.8-11.2-5.3-15.6h9.1v-12.1h-26.1V90.7h-14.1v11.5h-26.1v12.1h9.5
		c-3.5,4.5-5.3,9.8-5.3,15.6c0,15.4,12.5,27.1,29.1,27.1S1180.8,145.3,1180.8,129.9 M1166.8,129.9c0,8.4-6.5,14.8-15.1,14.8
		s-15.1-6.4-15.1-14.8c0-8.4,6.5-14.8,15.1-14.8S1166.8,121.5,1166.8,129.9"/>
	<path class="st2" d="M1180.4,157c-17.1,0-30,11.9-30,27.7c0,15.8,12.9,27.7,30,27.7c17.1,0,30-11.9,30-27.7
		C1210.4,168.9,1197.5,157,1180.4,157 M1196.3,184.7c0,8.9-6.8,15.7-15.9,15.7c-9.1,0-15.9-6.7-15.9-15.7c0-8.9,6.8-15.7,15.9-15.7
		C1189.5,169.1,1196.3,175.8,1196.3,184.7"/>
	<polygon class="st2" points="1063.6,134.8 1084.8,134.8 1084.8,180.3 1098.9,180.3 1098.9,93.3 1084.8,93.3 1084.8,122.8 
		1063.6,122.8 	"/>
	<polygon class="st2" points="1057.4,159.7 1068.1,153 1043.2,114.2 1065.8,114.2 1065.8,102.2 1042.6,102.2 1042.6,90.7 
		1028.5,90.7 1028.5,102.2 1005.3,102.2 1005.3,114.2 1027.9,114.2 1003,153 1013.6,159.7 1035.5,125.4 	"/>
	<path class="st2" d="M1043.2,196.7v-27.9h-14.1v35c0,2.8,2.2,5,5,5h67.3v-12.1H1043.2z"/>
	<polygon class="st2" points="1327,93.3 1327,125.3 1313.9,125.3 1313.9,93.3 1299.8,93.3 1299.8,208.7 1313.9,208.7 1313.9,137.4 
		1327,137.4 1327,208.7 1341.1,208.7 1341.1,93.3 	"/>
	<path class="st2" d="M1256.1,109.9h33.3V97.8H1242v69.7c0,2.8,2.2,5,5,5h46v-12.1h-36.9V109.9z"/>
	<polygon class="st2" points="887.1,148.2 887.1,160.3 933.7,160.3 933.7,184.9 947.8,184.9 947.8,160.3 991.4,160.3 991.4,148.2 	
		"/>
	<path class="st2" d="M915.4,170.7h-14.1v33.1c0,2.8,2.2,5,5,5h72v-12.1h-63V170.7z"/>
	<polygon class="st2" points="939.2,109.1 972.8,142.2 981.8,133.4 940.7,92.9 937.8,92.9 896.7,133.4 905.7,142.2 	"/>
	<polygon class="st2" points="1262.5,326.9 1262.5,311.3 1301.6,311.3 1301.6,299.3 1225.3,299.3 1225.3,311.3 1248.5,311.3 
		1248.5,326.9 	"/>
	<polygon class="st2" points="1279.4,329.8 1307.6,329.8 1307.6,343.2 1321.7,343.2 1321.7,249.3 1307.6,249.3 1307.6,317.8 
		1279.4,317.8 	"/>
	<path class="st2" d="M1266,352.7v-20.9h-14.1v28c0,2.8,2.2,5,5,5h67.3v-12.1H1266z"/>
	<path class="st2" d="M1260.3,295.6c16.4,0,27.9-9.8,27.9-23.8s-11.5-23.8-27.9-23.8c-16.4,0-27.9,9.8-27.9,23.8
		S1243.8,295.6,1260.3,295.6 M1246.4,271.8c0-6.9,5.7-11.7,13.8-11.7c8.2,0,13.8,4.8,13.8,11.7c0,6.9-5.7,11.7-13.8,11.7
		C1252.1,283.5,1246.4,278.7,1246.4,271.8"/>
	<polygon class="st2" points="972,249.3 972,277.4 947.3,277.4 947.3,289.5 972,289.5 972,364.8 986,364.8 986,249.3 	"/>
	<polygon class="st2" points="918.9,252.4 886,324.5 898.4,330.3 921,279.9 943.6,330.3 956.1,324.5 923.2,252.4 	"/>
	<polygon class="st2" points="1196.4,249.3 1196.4,265.1 1178.2,265.1 1178.2,277.2 1196.4,277.2 1196.4,288.4 1178.2,288.4 
		1178.2,300.5 1196.4,300.5 1196.4,314.9 1210.5,314.9 1210.5,249.3 	"/>
	<path class="st2" d="M1179.3,314.2c-16.5,0-29.9,11.3-29.9,27.2c0,15.9,13.4,27.2,29.9,27.2c16.5,0,29.9-11.3,29.9-27.2
		C1209.2,325.5,1195.8,314.2,1179.3,314.2 M1179.3,356.4c-8.7,0-15.8-6.3-15.8-15.1s7.1-15.1,15.8-15.1c8.7,0,15.8,6.3,15.8,15.1
		S1188.1,356.4,1179.3,356.4"/>
	<path class="st2" d="M1174,304.5V252H1160v17h-28v-17h-14.1v52.5c0,2.8,2.2,5,5,5h46.1C1171.8,309.5,1174,307.2,1174,304.5
		 M1160,297.4h-28v-16.3h28V297.4z"/>
	<path class="st2" d="M1105.6,310.3v-12.1h-103.1v12.1h44.5v7.4h-28.4v12.1h56.7v5.7h-56.7v24.3c0,2.8,2.2,5,5,5h66.7v-12.1h-57.6
		v-5.2h56.7v-29.8H1061v-7.4H1105.6z"/>
	<path class="st2" d="M1054.2,294.6c19.4,0,33-9.8,33-23.9c0-14.1-13.6-23.9-33-23.9c-19.4,0-33,9.8-33,23.9
		C1021.3,284.8,1034.8,294.6,1054.2,294.6 M1054.2,258.9c10.8,0,18.4,4.8,18.4,11.8c0,6.9-7.6,11.8-18.4,11.8
		c-10.8,0-18.4-4.8-18.4-11.8C1035.8,263.7,1043.4,258.9,1054.2,258.9"/>
</g>
</svg>
