<svg width="1634" height="454" viewBox="0 0 1634 454" fill="none" xmlns="http://www.w3.org/2000/svg">
<g clip-path="url(#clip0_262_8313)">
<path d="M816.2 85H79.2002V368.5H816.2V85Z" fill="white"/>
<path d="M777.1 300.7H718.7V368.5H777.1V300.7Z" fill="#24549C"/>
<mask id="mask0_262_8313" style="mask-type:luminance" maskUnits="userSpaceOnUse" x="0" y="0" width="1634" height="454">
<path d="M1633.3 0H0V453.5H1633.3V0Z" fill="white"/>
</mask>
<g mask="url(#mask0_262_8313)">
<path d="M348.1 354.3L365 322.6C381.4 333.7 396.8 340.9 410.3 340.9C423.7 340.9 436.3 336.7 436.6 322.3C436.9 309.3 425 303.2 405.6 297.9C386.2 292.6 354.9 278.1 354.9 242.3C354.9 203.7 391 191 416.5 191C442 191 461.7 200.2 473.6 207.1L459 237C445.9 229 433.2 225.5 422 225C409.8 224.4 397.9 227.9 396.2 238C394.4 248.3 400 258.8 431.8 267.6C466.7 277.3 478.3 296.6 478.3 318.8C478.3 335.5 472 357.4 448.9 368.6H551.5C518.7 354.6 496.6 322 496.6 284C496.6 233.2 536 192.1 587.9 192.1C618.4 192.1 641.9 204.7 657.9 225.8L629.3 251.6C620.9 239.6 605.6 230.5 588.5 230.5C559.7 230.5 537.5 254.5 537.5 284C537.5 313.6 559.7 337.5 588.5 337.5C605.7 337.5 620.9 328.4 629.3 316.4L657.9 342.2C649.1 353.8 638.1 362.8 624.9 368.5H678.7V195.7H718.8V262.7H777.2V195.7H816.3V85H79.2998V368.5H374C362.6 364.1 353.6 358.5 348.1 354.3Z" fill="#24549C"/>
</g>
<mask id="mask1_262_8313" style="mask-type:luminance" maskUnits="userSpaceOnUse" x="0" y="0" width="1634" height="454">
<path d="M1633.3 0H0V453.5H1633.3V0Z" fill="white"/>
</mask>
<g mask="url(#mask1_262_8313)">
<path d="M1550.3 168.6H1564.4V97.7998H1489.6V109.9H1550.3V168.6Z" fill="#24549C"/>
</g>
<mask id="mask2_262_8313" style="mask-type:luminance" maskUnits="userSpaceOnUse" x="0" y="0" width="1634" height="454">
<path d="M1633.3 0H0V453.5H1633.3V0Z" fill="white"/>
</mask>
<g mask="url(#mask2_262_8313)">
<path d="M1539.9 178.8V134.8H1525.8V178.8H1511.2V134.8H1497.1V178.8H1474.9V190.9H1579.3V178.8H1539.9Z" fill="#24549C"/>
</g>
<mask id="mask3_262_8313" style="mask-type:luminance" maskUnits="userSpaceOnUse" x="0" y="0" width="1634" height="454">
<path d="M1633.3 0H0V453.5H1633.3V0Z" fill="white"/>
</mask>
<g mask="url(#mask3_262_8313)">
<path d="M1381.9 180.4H1438.9V208.7H1453V168.4H1381.9V180.4Z" fill="#24549C"/>
</g>
<mask id="mask4_262_8313" style="mask-type:luminance" maskUnits="userSpaceOnUse" x="0" y="0" width="1634" height="454">
<path d="M1633.3 0H0V453.5H1633.3V0Z" fill="white"/>
</mask>
<g mask="url(#mask4_262_8313)">
<path d="M1453 117.2V93.2998H1438.9V160.3H1453V129.3H1468V117.2H1453Z" fill="#24549C"/>
</g>
<mask id="mask5_262_8313" style="mask-type:luminance" maskUnits="userSpaceOnUse" x="0" y="0" width="1634" height="454">
<path d="M1633.3 0H0V453.5H1633.3V0Z" fill="white"/>
</mask>
<g mask="url(#mask5_262_8313)">
<path d="M1420.9 129.9C1420.9 124.1 1419.1 118.7 1415.6 114.3H1424.7V102.2H1398.6V90.7002H1384.5V102.2H1358.4V114.3H1367.9C1364.4 118.8 1362.6 124.1 1362.6 129.9C1362.6 145.3 1375.1 157 1391.7 157C1408.3 157 1420.9 145.3 1420.9 129.9ZM1406.9 129.9C1406.9 138.3 1400.4 144.7 1391.8 144.7C1383.2 144.7 1376.7 138.3 1376.7 129.9C1376.7 121.5 1383.2 115.1 1391.8 115.1C1400.4 115.1 1406.9 121.5 1406.9 129.9Z" fill="#24549C"/>
</g>
<mask id="mask6_262_8313" style="mask-type:luminance" maskUnits="userSpaceOnUse" x="0" y="0" width="1634" height="454">
<path d="M1633.3 0H0V453.5H1633.3V0Z" fill="white"/>
</mask>
<g mask="url(#mask6_262_8313)">
<path d="M1227.8 117.6V105.5H1212.8V93.2998H1198.7V158.7H1212.8V142.5H1227.8V130.4H1212.8V117.6H1227.8Z" fill="#24549C"/>
</g>
<mask id="mask7_262_8313" style="mask-type:luminance" maskUnits="userSpaceOnUse" x="0" y="0" width="1634" height="454">
<path d="M1633.3 0H0V453.5H1633.3V0Z" fill="white"/>
</mask>
<g mask="url(#mask7_262_8313)">
<path d="M1180.8 129.9C1180.8 124.1 1179 118.7 1175.5 114.3H1184.6V102.2H1158.5V90.7002H1144.4V102.2H1118.3V114.3H1127.8C1124.3 118.8 1122.5 124.1 1122.5 129.9C1122.5 145.3 1135 157 1151.6 157C1168.2 157 1180.8 145.3 1180.8 129.9ZM1166.8 129.9C1166.8 138.3 1160.3 144.7 1151.7 144.7C1143.1 144.7 1136.6 138.3 1136.6 129.9C1136.6 121.5 1143.1 115.1 1151.7 115.1C1160.3 115.1 1166.8 121.5 1166.8 129.9Z" fill="#24549C"/>
</g>
<mask id="mask8_262_8313" style="mask-type:luminance" maskUnits="userSpaceOnUse" x="0" y="0" width="1634" height="454">
<path d="M1633.3 0H0V453.5H1633.3V0Z" fill="white"/>
</mask>
<g mask="url(#mask8_262_8313)">
<path d="M1180.4 157C1163.3 157 1150.4 168.9 1150.4 184.7C1150.4 200.5 1163.3 212.4 1180.4 212.4C1197.5 212.4 1210.4 200.5 1210.4 184.7C1210.4 168.9 1197.5 157 1180.4 157ZM1196.3 184.7C1196.3 193.6 1189.5 200.4 1180.4 200.4C1171.3 200.4 1164.5 193.7 1164.5 184.7C1164.5 175.8 1171.3 169 1180.4 169C1189.5 169.1 1196.3 175.8 1196.3 184.7Z" fill="#24549C"/>
</g>
<mask id="mask9_262_8313" style="mask-type:luminance" maskUnits="userSpaceOnUse" x="0" y="0" width="1634" height="454">
<path d="M1633.3 0H0V453.5H1633.3V0Z" fill="white"/>
</mask>
<g mask="url(#mask9_262_8313)">
<path d="M1063.6 134.8H1084.8V180.3H1098.9V93.2998H1084.8V122.8H1063.6V134.8Z" fill="#24549C"/>
</g>
<mask id="mask10_262_8313" style="mask-type:luminance" maskUnits="userSpaceOnUse" x="0" y="0" width="1634" height="454">
<path d="M1633.3 0H0V453.5H1633.3V0Z" fill="white"/>
</mask>
<g mask="url(#mask10_262_8313)">
<path d="M1057.4 159.7L1068.1 153L1043.2 114.2H1065.8V102.2H1042.6V90.7002H1028.5V102.2H1005.3V114.2H1027.9L1003 153L1013.6 159.7L1035.5 125.4L1057.4 159.7Z" fill="#24549C"/>
</g>
<mask id="mask11_262_8313" style="mask-type:luminance" maskUnits="userSpaceOnUse" x="0" y="0" width="1634" height="454">
<path d="M1633.3 0H0V453.5H1633.3V0Z" fill="white"/>
</mask>
<g mask="url(#mask11_262_8313)">
<path d="M1043.2 196.7V168.8H1029.1V203.8C1029.1 206.6 1031.3 208.8 1034.1 208.8H1101.4V196.7H1043.2Z" fill="#24549C"/>
</g>
<mask id="mask12_262_8313" style="mask-type:luminance" maskUnits="userSpaceOnUse" x="0" y="0" width="1634" height="454">
<path d="M1633.3 0H0V453.5H1633.3V0Z" fill="white"/>
</mask>
<g mask="url(#mask12_262_8313)">
<path d="M1327 93.2998V125.3H1313.9V93.2998H1299.8V208.7H1313.9V137.4H1327V208.7H1341.1V93.2998H1327Z" fill="#24549C"/>
</g>
<mask id="mask13_262_8313" style="mask-type:luminance" maskUnits="userSpaceOnUse" x="0" y="0" width="1634" height="454">
<path d="M1633.3 0H0V453.5H1633.3V0Z" fill="white"/>
</mask>
<g mask="url(#mask13_262_8313)">
<path d="M1256.1 109.9H1289.4V97.7998H1242V167.5C1242 170.3 1244.2 172.5 1247 172.5H1293V160.4H1256.1V109.9Z" fill="#24549C"/>
</g>
<mask id="mask14_262_8313" style="mask-type:luminance" maskUnits="userSpaceOnUse" x="0" y="0" width="1634" height="454">
<path d="M1633.3 0H0V453.5H1633.3V0Z" fill="white"/>
</mask>
<g mask="url(#mask14_262_8313)">
<path d="M887.1 148.2V160.3H933.7V184.9H947.8V160.3H991.4V148.2H887.1Z" fill="#24549C"/>
</g>
<mask id="mask15_262_8313" style="mask-type:luminance" maskUnits="userSpaceOnUse" x="0" y="0" width="1634" height="454">
<path d="M1633.3 0H0V453.5H1633.3V0Z" fill="white"/>
</mask>
<g mask="url(#mask15_262_8313)">
<path d="M915.4 170.7H901.3V203.8C901.3 206.6 903.5 208.8 906.3 208.8H978.3V196.7H915.3V170.7H915.4Z" fill="#24549C"/>
</g>
<mask id="mask16_262_8313" style="mask-type:luminance" maskUnits="userSpaceOnUse" x="0" y="0" width="1634" height="454">
<path d="M1633.3 0H0V453.5H1633.3V0Z" fill="white"/>
</mask>
<g mask="url(#mask16_262_8313)">
<path d="M939.2 109.1L972.8 142.2L981.8 133.4L940.7 92.9004H937.8L896.7 133.4L905.7 142.2L939.2 109.1Z" fill="#24549C"/>
</g>
<mask id="mask17_262_8313" style="mask-type:luminance" maskUnits="userSpaceOnUse" x="0" y="0" width="1634" height="454">
<path d="M1633.3 0H0V453.5H1633.3V0Z" fill="white"/>
</mask>
<g mask="url(#mask17_262_8313)">
<path d="M1262.5 326.9V311.3H1301.6V299.3H1225.3V311.3H1248.5V326.9H1262.5Z" fill="#24549C"/>
</g>
<mask id="mask18_262_8313" style="mask-type:luminance" maskUnits="userSpaceOnUse" x="0" y="0" width="1634" height="454">
<path d="M1633.3 0H0V453.5H1633.3V0Z" fill="white"/>
</mask>
<g mask="url(#mask18_262_8313)">
<path d="M1279.4 329.8H1307.6V343.2H1321.7V249.3H1307.6V317.8H1279.4V329.8Z" fill="#24549C"/>
</g>
<mask id="mask19_262_8313" style="mask-type:luminance" maskUnits="userSpaceOnUse" x="0" y="0" width="1634" height="454">
<path d="M1633.3 0H0V453.5H1633.3V0Z" fill="white"/>
</mask>
<g mask="url(#mask19_262_8313)">
<path d="M1266 352.7V331.8H1251.9V359.8C1251.9 362.6 1254.1 364.8 1256.9 364.8H1324.2V352.7H1266Z" fill="#24549C"/>
</g>
<mask id="mask20_262_8313" style="mask-type:luminance" maskUnits="userSpaceOnUse" x="0" y="0" width="1634" height="454">
<path d="M1633.3 0H0V453.5H1633.3V0Z" fill="white"/>
</mask>
<g mask="url(#mask20_262_8313)">
<path d="M1260.3 295.6C1276.7 295.6 1288.2 285.8 1288.2 271.8C1288.2 257.8 1276.7 248 1260.3 248C1243.9 248 1232.4 257.8 1232.4 271.8C1232.4 285.8 1243.8 295.6 1260.3 295.6ZM1246.4 271.8C1246.4 264.9 1252.1 260.1 1260.2 260.1C1268.4 260.1 1274 264.9 1274 271.8C1274 278.7 1268.3 283.5 1260.2 283.5C1252.1 283.5 1246.4 278.7 1246.4 271.8Z" fill="#24549C"/>
</g>
<mask id="mask21_262_8313" style="mask-type:luminance" maskUnits="userSpaceOnUse" x="0" y="0" width="1634" height="454">
<path d="M1633.3 0H0V453.5H1633.3V0Z" fill="white"/>
</mask>
<g mask="url(#mask21_262_8313)">
<path d="M1196.4 249.3V265.1H1178.2V277.2H1196.4V288.4H1178.2V300.5H1196.4V314.9H1210.5V249.3H1196.4Z" fill="#24549C"/>
</g>
<mask id="mask22_262_8313" style="mask-type:luminance" maskUnits="userSpaceOnUse" x="0" y="0" width="1634" height="454">
<path d="M1633.3 0H0V453.5H1633.3V0Z" fill="white"/>
</mask>
<g mask="url(#mask22_262_8313)">
<path d="M1179.3 314.2C1162.8 314.2 1149.4 325.5 1149.4 341.4C1149.4 357.3 1162.8 368.6 1179.3 368.6C1195.8 368.6 1209.2 357.3 1209.2 341.4C1209.2 325.5 1195.8 314.2 1179.3 314.2ZM1179.3 356.4C1170.6 356.4 1163.5 350.1 1163.5 341.3C1163.5 332.5 1170.6 326.2 1179.3 326.2C1188 326.2 1195.1 332.5 1195.1 341.3C1195.1 350.1 1188.1 356.4 1179.3 356.4Z" fill="#24549C"/>
</g>
<mask id="mask23_262_8313" style="mask-type:luminance" maskUnits="userSpaceOnUse" x="0" y="0" width="1634" height="454">
<path d="M1633.3 0H0V453.5H1633.3V0Z" fill="white"/>
</mask>
<g mask="url(#mask23_262_8313)">
<path d="M1174 304.5V252H1160V269H1132V252H1117.9V304.5C1117.9 307.3 1120.1 309.5 1122.9 309.5H1169C1171.8 309.5 1174 307.2 1174 304.5ZM1160 297.4H1132V281.1H1160V297.4Z" fill="#24549C"/>
</g>
<mask id="mask24_262_8313" style="mask-type:luminance" maskUnits="userSpaceOnUse" x="0" y="0" width="1634" height="454">
<path d="M1633.3 0H0V453.5H1633.3V0Z" fill="white"/>
</mask>
<g mask="url(#mask24_262_8313)">
<path d="M1037.4 324.8H1023.3V359.8C1023.3 362.6 1025.5 364.8 1028.3 364.8H1095.6V352.7H1037.4V324.8Z" fill="#24549C"/>
</g>
<mask id="mask25_262_8313" style="mask-type:luminance" maskUnits="userSpaceOnUse" x="0" y="0" width="1634" height="454">
<path d="M1633.3 0H0V453.5H1633.3V0Z" fill="white"/>
</mask>
<g mask="url(#mask25_262_8313)">
<path d="M1092.6 273.3V249.3H1078.5V336.3H1092.6V285.3H1107.6V273.3H1092.6Z" fill="#24549C"/>
</g>
<mask id="mask26_262_8313" style="mask-type:luminance" maskUnits="userSpaceOnUse" x="0" y="0" width="1634" height="454">
<path d="M1633.3 0H0V453.5H1633.3V0Z" fill="white"/>
</mask>
<g mask="url(#mask26_262_8313)">
<path d="M1061.9 280.5C1061.9 263.3 1048.2 251.1 1031.3 251.1C1014.4 251.1 1000.7 263.3 1000.7 280.5C1000.7 297.7 1014.4 309.9 1031.3 309.9C1048.2 309.9 1061.9 297.7 1061.9 280.5ZM1014.4 280.5C1014.4 270.5 1022 263.4 1031.3 263.4C1040.7 263.4 1048.2 270.5 1048.2 280.5C1048.2 290.5 1040.6 297.6 1031.3 297.6C1022 297.6 1014.4 290.5 1014.4 280.5Z" fill="#24549C"/>
</g>
<mask id="mask27_262_8313" style="mask-type:luminance" maskUnits="userSpaceOnUse" x="0" y="0" width="1634" height="454">
<path d="M1633.3 0H0V453.5H1633.3V0Z" fill="white"/>
</mask>
<g mask="url(#mask27_262_8313)">
<path d="M946.9 290.9H968.1V336.3H982.2V249.3H968.1V278.8H946.9V290.9Z" fill="#24549C"/>
</g>
<mask id="mask28_262_8313" style="mask-type:luminance" maskUnits="userSpaceOnUse" x="0" y="0" width="1634" height="454">
<path d="M1633.3 0H0V453.5H1633.3V0Z" fill="white"/>
</mask>
<g mask="url(#mask28_262_8313)">
<path d="M940.7 315.7L951.4 309.1L926.5 270.3H949.1V258.2H925.9V246.8H911.8V258.2H888.6V270.3H911.2L886.3 309.1L896.9 315.7L918.8 281.4L940.7 315.7Z" fill="#24549C"/>
</g>
<mask id="mask29_262_8313" style="mask-type:luminance" maskUnits="userSpaceOnUse" x="0" y="0" width="1634" height="454">
<path d="M1633.3 0H0V453.5H1633.3V0Z" fill="white"/>
</mask>
<g mask="url(#mask29_262_8313)">
<path d="M926.5 352.7V324.8H912.4V359.8C912.4 362.6 914.6 364.8 917.4 364.8H984.7V352.7H926.5Z" fill="#24549C"/>
</g>
</g>
<defs>
<clipPath id="clip0_262_8313">
<rect width="1633.3" height="453.5" fill="white"/>
</clipPath>
</defs>
</svg>
