<svg width="104" height="102" viewBox="0 0 104 102" fill="none" xmlns="http://www.w3.org/2000/svg">
<path d="M92.1267 54.5582H75.5868V46.2558H92.1267V54.5582ZM92.1267 59.3023H75.5868V67.6047H92.1267V59.3023ZM92.1267 20.1628H75.5868V28.465H92.1267V20.1628ZM92.1267 33.2093H75.5868V41.5115H92.1267V33.2093ZM92.1267 72.3488H75.5868V80.6512H92.1267V72.3486V72.3488ZM103.551 88.7163C103.078 91.1834 100.125 91.2425 98.1518 91.3257H61.4099V102H54.0733L0 92.5115V9.5003L54.3924 0H61.4099V9.45279H96.8877C98.8845 9.53579 101.082 9.39345 102.818 10.5913C104.035 12.3466 103.917 14.5765 104 16.5927L103.953 78.3383C103.894 81.7897 104.272 85.3125 103.551 88.7163ZM43.3223 70.1073C40.0617 63.4655 36.7421 56.8709 33.4931 50.229C36.7065 43.7651 39.8728 37.2775 43.0271 30.7897C40.3453 30.9202 37.6634 31.0862 34.9935 31.2761C32.9968 36.1506 30.6694 40.8949 29.11 45.9356C27.6569 41.1795 25.7313 36.6013 23.971 31.9639C21.3718 32.1062 18.7726 32.2604 16.1736 32.4146C18.9144 38.4874 21.8327 44.4765 24.4908 50.5848C21.36 56.5151 18.4301 62.5285 15.3938 68.4942C17.981 68.6009 20.5684 68.7077 23.1556 68.7432C24.9988 64.0229 27.2906 59.4803 28.8974 54.6649C30.3387 59.8361 32.7842 64.6159 34.7927 69.5616C37.6399 69.7635 40.4751 69.9413 43.3223 70.1073ZM98.3653 15.0857H61.4099V20.1628H70.8613V28.465H61.4099V33.2093H70.8613V41.5115H61.4099V46.2558H70.8613V54.5582H61.4099V59.3023H70.8613V67.6047H61.4099V72.3488H70.8613V80.6512H61.4099V86.1361H98.3653V15.0857Z" fill="white"/>
</svg>
