<svg width="87" height="100" viewBox="0 0 87 100" fill="none" xmlns="http://www.w3.org/2000/svg">
<path fill-rule="evenodd" clip-rule="evenodd" d="M9.32143 9.375V90.625H45.0536C46.2897 90.625 47.4751 91.1189 48.3492 91.9979C49.2232 92.877 49.7143 94.0693 49.7143 95.3125C49.7143 96.5557 49.2232 97.748 48.3492 98.6271C47.4751 99.5061 46.2897 100 45.0536 100H6.21429C4.56615 100 2.98553 99.3415 1.82012 98.1694C0.654717 96.9973 0 95.4076 0 93.75V6.25C0 4.5924 0.654717 3.00269 1.82012 1.83059C2.98553 0.658483 4.56615 3.06182e-06 6.21429 3.06182e-06H47.502C48.3369 -0.000828031 49.1633 0.167541 49.9321 0.495058C50.7008 0.822576 51.3961 1.30253 51.9763 1.90625L72.8252 23.6313C73.9453 24.7967 74.5714 26.3541 74.5714 27.975V39.0625C74.5714 40.3057 74.0804 41.498 73.2063 42.3771C72.3323 43.2561 71.1468 43.75 69.9107 43.75C68.6746 43.75 67.4892 43.2561 66.6151 42.3771C65.741 41.498 65.25 40.3057 65.25 39.0625V37.5H48.1607C45.2765 37.5 42.5104 36.3477 40.4709 34.2965C38.4315 32.2453 37.2857 29.4633 37.2857 26.5625V9.375H9.32143ZM46.6071 9.8125L64.1811 28.125H48.1607C47.7487 28.125 47.3535 27.9604 47.0622 27.6674C46.7708 27.3743 46.6071 26.9769 46.6071 26.5625V9.8125ZM68.3571 93.75C67.121 93.75 65.9356 93.2561 65.0615 92.3771C64.1875 91.498 63.6964 90.3057 63.6964 89.0625V79.6875H54.375C53.1389 79.6875 51.9534 79.1936 51.0794 78.3146C50.2053 77.4355 49.7143 76.2432 49.7143 75C49.7143 73.7568 50.2053 72.5645 51.0794 71.6854C51.9534 70.8064 53.1389 70.3125 54.375 70.3125H63.6964V60.9375C63.6964 59.6943 64.1875 58.502 65.0615 57.6229C65.9356 56.7439 67.121 56.25 68.3571 56.25C69.5932 56.25 70.7787 56.7439 71.6528 57.6229C72.5268 58.502 73.0179 59.6943 73.0179 60.9375V70.3125H82.3393C83.5754 70.3125 84.7609 70.8064 85.6349 71.6854C86.509 72.5645 87 73.7568 87 75C87 76.2432 86.509 77.4355 85.6349 78.3146C84.7609 79.1936 83.5754 79.6875 82.3393 79.6875H73.0179V89.0625C73.0179 90.3057 72.5268 91.498 71.6528 92.3771C70.7787 93.2561 69.5932 93.75 68.3571 93.75Z" fill="white"/>
</svg>
