<svg width="100" height="100" viewBox="0 0 100 100" fill="none" xmlns="http://www.w3.org/2000/svg">
<path d="M97.6563 24.6841L75.3122 2.34382C74.5693 1.60075 73.6873 1.0113 72.7166 0.609146C71.746 0.206989 70.7056 0 69.6549 0C68.6042 0 67.5638 0.206989 66.5931 0.609146C65.6224 1.0113 64.7404 1.60075 63.9976 2.34382L2.34495 63.9996C1.59888 64.7397 1.00737 65.6209 0.604813 66.5917C0.202257 67.5625 -0.00331707 68.6037 4.04732e-05 69.6546V91.9999C4.04732e-05 94.1217 0.842863 96.1565 2.3431 97.6568C3.84333 99.1571 5.87808 100 7.99973 100H91.9965C93.0573 100 94.0747 99.5786 94.8248 98.8284C95.575 98.0783 95.9964 97.0608 95.9964 95.9999C95.9964 94.9391 95.575 93.9216 94.8248 93.1715C94.0747 92.4213 93.0573 91.9999 91.9965 91.9999H41.6584L97.6563 35.9992C98.3993 35.2563 98.9887 34.3743 99.3909 33.4036C99.793 32.4328 100 31.3924 100 30.3417C100 29.2909 99.793 28.2505 99.3909 27.2797C98.9887 26.309 98.3993 25.427 97.6563 24.6841ZM51.9981 25.6541L60.3427 33.9992L17.9993 76.3447L9.65467 67.9996L51.9981 25.6541ZM7.99973 91.9999V77.6547L22.3442 91.9999H7.99973ZM31.9988 90.3449L23.6591 81.9998L65.9975 39.6543L74.3422 47.9994L31.9988 90.3449ZM79.997 42.3443L57.6578 19.999L69.6574 7.99889L91.9965 30.3442L79.997 42.3443Z" fill="white"/>
</svg>
